<svg width="24" height="24" viewBox="0 0 24 24" fill="none" xmlns="http://www.w3.org/2000/svg">
<g clip-path="url(#clip0_14_271)">
<mask id="mask0_14_271" style="mask-type:luminance" maskUnits="userSpaceOnUse" x="0" y="0" width="24" height="24">
<path d="M24 0H0V24H24V0Z" fill="white"/>
</mask>
<g mask="url(#mask0_14_271)">
<path d="M18.5253 5.4696C17.234 4.1797 15.5893 3.30158 13.7991 2.94623C12.0088 2.59088 10.1534 2.77425 8.46735 3.47317C6.7813 4.17209 5.3403 5.35518 4.32649 6.8729C3.31268 8.39061 2.77158 10.1748 2.77158 12C2.77158 13.8252 3.31268 15.6094 4.32649 17.1271C5.3403 18.6448 6.7813 19.8279 8.46735 20.5268C10.1534 21.2257 12.0088 21.4091 13.7991 21.0538C15.5893 20.6984 17.234 19.8203 18.5253 18.5304C20.2562 16.7978 21.2284 14.449 21.2284 12C21.2284 9.551 20.2562 7.20217 18.5253 5.4696ZM15.8049 14.7216C15.9493 14.8659 16.0303 15.0617 16.0303 15.2658C16.0303 15.4699 15.9493 15.6657 15.8049 15.81C15.6606 15.9543 15.4648 16.0354 15.2607 16.0354C15.0566 16.0354 14.8609 15.9543 14.7165 15.81L11.9961 13.0836L9.27573 15.8088C9.1314 15.9531 8.93565 16.0342 8.73153 16.0342C8.52742 16.0342 8.33166 15.9531 8.18733 15.8088C8.043 15.6645 7.96192 15.4687 7.96192 15.2646C7.96192 15.0605 8.043 14.8647 8.18733 14.7204L10.9077 12.0036L8.18733 9.2796C8.043 9.13527 7.96192 8.93951 7.96192 8.7354C7.96192 8.53128 8.043 8.33553 8.18733 8.1912C8.33166 8.04687 8.52742 7.96578 8.73153 7.96578C8.93565 7.96578 9.1314 8.04687 9.27573 8.1912L11.9961 10.9116L14.7165 8.1912C14.8609 8.04687 15.0566 7.96578 15.2607 7.96578C15.4648 7.96578 15.6606 8.04687 15.8049 8.1912C15.9493 8.33553 16.0303 8.53128 16.0303 8.7354C16.0303 8.93951 15.9493 9.13527 15.8049 9.2796L13.0845 12.0036L15.8049 14.7216Z" fill="#9D9D9D"/>
</g>
</g>
<defs>
<clipPath id="clip0_14_271">
<rect width="24" height="24" fill="white"/>
</clipPath>
</defs>
</svg>
