<svg width="24" height="24" viewBox="0 0 24 24" fill="none" xmlns="http://www.w3.org/2000/svg">
<g clip-path="url(#clip0_14_268)">
<path d="M17.238 16.3807L16.9582 16.7301L17.2746 17.0467L23.4512 23.2277C23.4513 23.2278 23.4513 23.2279 23.4514 23.228C23.4832 23.26 23.5 23.3015 23.5 23.3448C23.5 23.3858 23.485 23.4252 23.458 23.4558C23.4236 23.4843 23.3802 23.5 23.3353 23.5C23.2892 23.5 23.2446 23.4834 23.2097 23.4533L17.0414 17.2806L16.7247 16.9637L16.3751 17.2439L16.1702 17.4081L16.1702 17.408L16.1633 17.4137C14.2724 18.9851 11.8488 19.7671 9.39636 19.5972C6.94394 19.4272 4.65126 18.3185 2.9949 16.5013C1.33852 14.6841 0.445877 12.2983 0.502542 9.83966C0.559206 7.38107 1.56082 5.03891 3.29915 3.30001C5.03747 1.56112 7.37879 0.559222 9.83643 0.502542C12.2941 0.445863 14.679 1.33875 16.4956 2.99566C18.3122 4.65257 19.4207 6.94605 19.5905 9.39941C19.7604 11.8528 18.9786 14.2773 17.4077 16.1689L17.4077 16.1688L17.4021 16.1758L17.238 16.3807ZM10.071 19.2918H10.0717C12.5144 19.2874 14.8558 18.3145 16.5826 16.5864C18.3095 14.8582 19.2811 12.5158 19.2844 10.0724V10.0717C19.2844 8.24799 18.7437 6.46525 17.7308 4.94893C16.7178 3.43261 15.2781 2.25084 13.5936 1.55308C11.9092 0.855323 10.0557 0.672943 8.26755 1.02902C6.47945 1.3851 4.83709 2.26364 3.54819 3.55349C2.2593 4.84333 1.38178 6.48655 1.02657 8.27529C0.671363 10.064 0.854433 11.918 1.55263 13.6026C2.25082 15.2873 3.43278 16.727 4.94905 17.7397C6.46532 18.7524 8.24777 19.2925 10.071 19.2918Z" fill="#979797" stroke="#979797"/>
</g>
<defs>
<clipPath id="clip0_14_268">
<rect width="24" height="24" fill="white"/>
</clipPath>
</defs>
</svg>
