<svg width="20" height="20" viewBox="0 0 20 20" fill="none" xmlns="http://www.w3.org/2000/svg">
<path d="M19.3425 6.03L18.2091 1.55333C18.1382 1.26632 17.9732 1.01133 17.7405 0.82903C17.5077 0.646728 17.2206 0.547615 16.925 0.547501H3.04747C2.75085 0.547498 2.46268 0.646409 2.22859 0.828584C1.99449 1.01076 1.82783 1.26579 1.75497 1.55333L0.637473 6.00583C0.515561 6.5647 0.524171 7.14415 0.662631 7.69914C0.80109 8.25414 1.06567 8.76973 1.43581 9.20583L1.48331 9.26167V18.1192C1.4846 18.471 1.62436 18.8081 1.87233 19.0576C2.12029 19.3071 2.45654 19.449 2.80831 19.4525H17.1641C17.5163 19.4503 17.8533 19.3089 18.1016 19.059C18.3498 18.8092 18.4891 18.4713 18.4891 18.1192V9.26167C18.5883 9.16368 18.6815 9.05989 18.7683 8.95083C19.0725 8.53592 19.2816 8.05917 19.3808 7.55438C19.48 7.0496 19.4669 6.52916 19.3425 6.03ZM7.56414 1.46417H12.4958V6.88083C12.4923 7.53296 12.2311 8.15725 11.7692 8.6176C11.3073 9.07795 10.6821 9.33702 10.03 9.33833H10.0166C9.69231 9.33681 9.37146 9.2714 9.07242 9.14584C8.77338 9.02029 8.502 8.83705 8.27379 8.6066C8.04558 8.37614 7.865 8.10298 7.74238 7.80272C7.61976 7.50247 7.55749 7.18099 7.55914 6.85667L7.56414 1.46417ZM1.47581 6.80417C1.47607 6.61056 1.50014 6.41773 1.54747 6.23L2.66497 1.7775C2.68697 1.6929 2.73502 1.61737 2.80232 1.56158C2.86962 1.5058 2.95276 1.47259 3.03997 1.46667H6.59997V6.86C6.59631 7.1964 6.52642 7.52879 6.3943 7.83818C6.26217 8.14758 6.0704 8.42792 5.82994 8.6632C5.58947 8.89848 5.30502 9.08409 4.99282 9.20944C4.68062 9.33479 4.34679 9.39742 4.01039 9.39375C3.67399 9.39008 3.3416 9.32019 3.03221 9.18807C2.72281 9.05595 2.44248 8.86418 2.2072 8.62372C1.97191 8.38325 1.7863 8.0988 1.66095 7.7866C1.5356 7.4744 1.47214 7.14057 1.47581 6.80417ZM11.7941 18.5267H8.17914V13.595H11.7941V18.5267ZM17.5316 18.12C17.535 18.1709 17.5281 18.222 17.5114 18.2703C17.4947 18.3185 17.4685 18.3629 17.4343 18.4008C17.4001 18.4388 17.3586 18.4694 17.3124 18.491C17.2661 18.5127 17.216 18.5248 17.165 18.5267H12.7591V13.11C12.7594 12.9843 12.7101 12.8635 12.622 12.7739C12.5339 12.6842 12.414 12.6328 12.2883 12.6308H7.69247C7.56546 12.6311 7.44371 12.6816 7.3539 12.7714C7.26408 12.8612 7.21353 12.983 7.21331 13.11V18.5267H2.80831C2.75766 18.5246 2.70796 18.5123 2.6622 18.4905C2.61643 18.4687 2.57554 18.4379 2.54198 18.3999C2.50843 18.362 2.48291 18.3176 2.46695 18.2695C2.451 18.2213 2.44494 18.1705 2.44914 18.12V9.9875L2.72831 10.1075C3.10263 10.2663 3.50279 10.3556 3.90914 10.3708H4.05247C4.6098 10.3696 5.15885 10.2358 5.65426 9.98051C6.14967 9.7252 6.57724 9.35569 6.90164 8.9025L7.06164 8.67083L7.22831 8.9025C7.4816 9.26855 7.8046 9.58106 8.1788 9.82215C8.55301 10.0632 8.97108 10.2282 9.4091 10.3075C9.84711 10.3868 10.2965 10.379 10.7315 10.2845C11.1665 10.19 11.5785 10.0106 11.9441 9.75667C12.2774 9.53116 12.5645 9.24407 12.79 8.91083L12.9566 8.67917L13.1166 8.91083C13.5601 9.52587 14.1912 9.98029 14.9151 10.2057C15.6391 10.4311 16.4166 10.4154 17.1308 10.1608C17.2687 10.1045 17.4021 10.038 17.53 9.96167L17.5316 18.12ZM18.1225 8.20333C17.7649 8.78533 17.1909 9.20163 16.5266 9.36083C16.3443 9.40816 16.1567 9.43224 15.9683 9.4325C15.6328 9.43327 15.3005 9.36782 14.9904 9.23989C14.6803 9.11197 14.3985 8.9241 14.1611 8.68705C13.9238 8.45 13.7355 8.16842 13.6072 7.85848C13.4789 7.54853 13.413 7.2163 13.4133 6.88083V1.46417H16.9133C17.0027 1.46594 17.0889 1.49747 17.1583 1.55377C17.2278 1.61007 17.2764 1.68792 17.2966 1.775L18.4216 6.25167C18.5029 6.58013 18.5183 6.92145 18.4668 7.25588C18.4153 7.59031 18.298 7.9112 18.1216 8.2L18.1225 8.20333Z" fill="#9D9D9D"/>
</svg>
